<?xml version="1.0" encoding="utf-8"?>
<!-- Generator: Adobe Illustrator 19.2.0, SVG Export Plug-In . SVG Version: 6.00 Build 0)  -->
<svg version="1.1" id="logo" xmlns="http://www.w3.org/2000/svg" xmlns:xlink="http://www.w3.org/1999/xlink" x="0px" y="0px"
	 width="100%" height="100%" viewBox="0 0 349.1 144.3" style="enable-background:new 0 0 349.1 144.3;" xml:space="preserve"
	>
<style type="text/css">
	.st0{fill:#58595B;}
	.st1{fill:#1EB6D1;}
	.st2{fill:#FFFFFF;}
</style>
<g>
	<path class="st0" d="M153.4,143.2c-0.2,0-0.3-0.1-0.4-0.2l-3.6-4.1l-3.2-3.8h-0.1l0.1,3.6v4.3c0,0.2-0.1,0.2-0.3,0.2h-0.8
		c-0.2,0-0.3-0.1-0.3-0.2v-9.1c0-0.2,0.1-0.2,0.3-0.2h0.9c0.2,0,0.3,0.1,0.4,0.2l3.9,4.4l2.9,3.5h0.1l-0.1-3.6V134
		c0-0.2,0.1-0.2,0.3-0.2h0.8c0.2,0,0.3,0.1,0.3,0.2v9.2c0,0.2-0.1,0.2-0.3,0.2h-0.9V143.2z"/>
	<path class="st0" d="M164,143.2c-0.1,0-0.2-0.1-0.3-0.2l-4.5-9.2c-0.1-0.1,0-0.2,0.1-0.2h1c0.1,0,0.2,0.1,0.3,0.2l2.1,4.5l1.8,3.9
		h0.2l1.8-4l2.1-4.4c0.1-0.1,0.2-0.2,0.3-0.2h1c0.1,0,0.2,0.1,0.1,0.2l-4.5,9.2c-0.1,0.1-0.2,0.2-0.3,0.2H164z"/>
	<path class="st0" d="M182.6,133.6c0.2,0,0.3,0.1,0.3,0.2v0.6c0,0.2-0.1,0.2-0.3,0.2H176v3h6.2c0.2,0,0.3,0.1,0.3,0.2v0.6
		c0,0.2-0.1,0.2-0.3,0.2H176v3.5h6.8c0.2,0,0.3,0.1,0.3,0.2v0.6c0,0.2-0.1,0.2-0.3,0.2H175c-0.2,0-0.3-0.1-0.3-0.2v-9.2
		c0-0.2,0.1-0.2,0.3-0.2L182.6,133.6L182.6,133.6z"/>
	<path class="st0" d="M196.7,134.8c0.1,0.1,0.1,0.2,0,0.3l-0.5,0.5c-0.1,0.1-0.3,0.1-0.4,0c-1-0.8-2.2-1.2-3.6-1.2
		c-1.9,0-3,0.5-3,1.5s1.2,1.3,3.2,1.5c2.7,0.3,4.7,0.9,4.7,2.9c0,1.9-2.1,2.9-4.7,2.9c-2,0-3.5-0.5-4.8-1.6c-0.1-0.1-0.1-0.2,0-0.3
		l0.5-0.6c0.1-0.1,0.2-0.1,0.4,0c1.2,1,2.5,1.4,4,1.4c2.3,0,3.4-0.7,3.4-1.9c0-1.3-1.4-1.6-3.6-1.8c-2.2-0.2-4.3-0.7-4.3-2.6
		c0-1.5,1.7-2.5,4.3-2.5C193.9,133.4,195.5,133.8,196.7,134.8z"/>
	<path class="st0" d="M210.4,133.6c0.2,0,0.3,0.1,0.3,0.2v0.6c0,0.2-0.1,0.2-0.3,0.2h-3.8v8.3c0,0.2-0.1,0.2-0.3,0.2h-0.7
		c-0.2,0-0.3-0.1-0.3-0.2v-8.3h-3.8c-0.2,0-0.3-0.1-0.3-0.2v-0.6c0-0.2,0.1-0.2,0.3-0.2H210.4z"/>
	<path class="st0" d="M226.9,133.6c0.2,0,0.3,0.1,0.3,0.2v9.1c0,0.2-0.1,0.2-0.3,0.2h-0.8c-0.2,0-0.3-0.1-0.3-0.2v-4.6l0.1-3.5h-0.1
		l-1.6,3.5l-2.4,4.6c-0.1,0.1-0.2,0.2-0.3,0.2H221c-0.2,0-0.3-0.1-0.4-0.2l-2.4-4.8l-1.6-3.4h-0.1l0.1,3.4v4.8
		c0,0.2-0.1,0.2-0.3,0.2h-0.8c-0.2,0-0.3-0.1-0.3-0.2v-9.1c0-0.2,0.1-0.2,0.3-0.2h1.4c0.2,0,0.3,0.1,0.4,0.2l2.3,4.4l1.6,3.4h0.1
		l1.8-3.9l2-3.9c0.1-0.2,0.2-0.2,0.4-0.2H226.9z"/>
	<path class="st0" d="M240.3,133.6c0.2,0,0.3,0.1,0.3,0.2v0.6c0,0.2-0.1,0.2-0.3,0.2h-6.6v3h6.2c0.2,0,0.3,0.1,0.3,0.2v0.6
		c0,0.2-0.1,0.2-0.3,0.2h-6.2v3.5h6.8c0.2,0,0.3,0.1,0.3,0.2v0.6c0,0.2-0.1,0.2-0.3,0.2h-7.8c-0.2,0-0.3-0.1-0.3-0.2v-9.2
		c0-0.2,0.1-0.2,0.3-0.2L240.3,133.6L240.3,133.6z"/>
	<path class="st0" d="M254.3,143.2c-0.2,0-0.3-0.1-0.4-0.2l-3.6-4.1l-3.2-3.8H247l0.1,3.6v4.3c0,0.2-0.1,0.2-0.3,0.2H246
		c-0.2,0-0.3-0.1-0.3-0.2v-9.1c0-0.2,0.1-0.2,0.3-0.2h0.9c0.2,0,0.3,0.1,0.4,0.2l3.9,4.4l2.9,3.5h0.1l-0.1-3.6V134
		c0-0.2,0.1-0.2,0.3-0.2h0.8c0.2,0,0.3,0.1,0.3,0.2v9.2c0,0.2-0.1,0.2-0.3,0.2h-0.9V143.2z"/>
	<path class="st0" d="M269.2,133.6c0.2,0,0.3,0.1,0.3,0.2v0.6c0,0.2-0.1,0.2-0.3,0.2h-3.8v8.3c0,0.2-0.1,0.2-0.3,0.2h-0.7
		c-0.2,0-0.3-0.1-0.3-0.2v-8.3h-3.8c-0.2,0-0.3-0.1-0.3-0.2v-0.6c0-0.2,0.1-0.2,0.3-0.2H269.2z"/>
	<path class="st0" d="M290.4,138c0.2,0,0.3,0.1,0.3,0.2v4.7c0,0.2-0.1,0.2-0.3,0.2h-0.5c-0.1,0-0.3-0.1-0.3-0.2l-0.1-0.8
		c-0.9,0.8-2.1,1.1-3.3,1.1c-3.1,0-5.5-2.1-5.5-4.9c0-2.9,2.4-5,5.5-5c1.8,0,3.3,0.6,4.4,1.8c0.1,0.1,0.1,0.2,0,0.3l-0.5,0.4
		c-0.1,0.1-0.3,0.1-0.4,0c-0.8-0.9-2-1.5-3.4-1.5c-2.4,0-4.2,1.7-4.2,3.9s1.8,3.9,4.2,3.9c1.3,0,2.4-0.5,3.2-1.3v-2.7
		c0-0.2,0.1-0.2,0.3-0.2h0.6V138z"/>
	<path class="st0" d="M300.9,133.6c2.3,0,4,1.5,4,3.4c0,1.4-0.9,2.6-2.3,3.1l1.8,2.9c0.1,0.1,0,0.2-0.2,0.2h-0.9
		c-0.1,0-0.3-0.1-0.4-0.2l-1.6-2.7c-0.2,0-0.3,0-0.5,0H297v2.6c0,0.2-0.1,0.2-0.3,0.2H296c-0.2,0-0.3-0.1-0.3-0.2v-9.2
		c0-0.2,0.1-0.2,0.3-0.2L300.9,133.6L300.9,133.6z M300.9,139.2c1.7,0,2.7-1,2.7-2.3s-1-2.3-2.7-2.3H297v4.6H300.9z"/>
	<path class="st0" d="M315.1,133.4c3.1,0,5.5,2.1,5.5,5s-2.4,4.9-5.5,4.9s-5.5-2.1-5.5-4.9C309.6,135.5,312,133.4,315.1,133.4z
		 M310.9,138.4c0,2.2,1.7,3.9,4.2,3.9s4.2-1.7,4.2-3.9s-1.7-3.9-4.2-3.9S310.9,136.2,310.9,138.4z"/>
	<path class="st0" d="M325.3,133.8c0-0.2,0.1-0.2,0.3-0.2h0.8c0.2,0,0.3,0.1,0.3,0.2v5.2c0,1.9,1.3,3.3,3.4,3.3
		c2.2,0,3.4-1.4,3.4-3.3v-5.2c0-0.2,0.1-0.2,0.3-0.2h0.8c0.2,0,0.3,0.1,0.3,0.2v5.2c0,2.5-1.8,4.3-4.7,4.3c-2.9,0-4.7-1.8-4.7-4.3
		v-5.2H325.3z"/>
	<path class="st0" d="M345.1,133.6c2.3,0,4,1.5,4,3.4s-1.7,3.4-4,3.4h-3.9v2.6c0,0.2-0.1,0.2-0.3,0.2h-0.8c-0.2,0-0.3-0.1-0.3-0.2
		v-9.2c0-0.2,0.1-0.2,0.3-0.2H345.1z M345.1,139.2c1.7,0,2.7-1,2.7-2.3s-0.9-2.3-2.7-2.3h-3.9v4.6H345.1z"/>
	<g>
		<g>
			<path class="st1" d="M137.6,95.9c0-0.5,0.3-0.7,0.7-0.7h4.6c0.5,0,0.7,0.3,0.7,0.7V111c0,4.2,2.3,7.2,6.7,7.2
				c4.2,0,6.7-2.9,6.7-7.2V95.9c0-0.5,0.3-0.7,0.7-0.7h4.6c0.5,0,0.7,0.3,0.7,0.7v15.2c0,7.4-4.9,12.9-12.8,12.9
				c-7.8,0-12.7-5.6-12.7-12.9V95.9H137.6z"/>
			<path class="st1" d="M192.1,95.2c0.5,0,0.7,0.3,0.7,0.7v4.3c0,0.5-0.3,0.7-0.7,0.7h-15.4v5.4h14c0.5,0,0.7,0.3,0.7,0.7v4.3
				c0,0.5-0.3,0.7-0.7,0.7h-14v10.8c0,0.5-0.3,0.7-0.7,0.7h-4.6c-0.5,0-0.7-0.3-0.7-0.7v-27c0-0.5,0.3-0.7,0.7-0.7L192.1,95.2
				L192.1,95.2z"/>
			<path class="st1" d="M199.6,95.9c0-0.5,0.3-0.7,0.7-0.7h4.6c0.5,0,0.7,0.3,0.7,0.7V111c0,4.2,2.3,7.2,6.7,7.2
				c4.2,0,6.7-2.9,6.7-7.2V95.9c0-0.5,0.3-0.7,0.7-0.7h4.6c0.5,0,0.7,0.3,0.7,0.7v15.2c0,7.4-4.9,12.9-12.8,12.9
				c-7.8,0-12.7-5.6-12.7-12.9V95.9H199.6z"/>
			<path class="st1" d="M255.5,95.2c0.5,0,0.7,0.3,0.7,0.7v4.3c0,0.5-0.3,0.7-0.7,0.7h-9.1v22c0,0.5-0.3,0.7-0.7,0.7h-4.6
				c-0.5,0-0.7-0.3-0.7-0.7v-22h-9.1c-0.5,0-0.7-0.3-0.7-0.7v-4.3c0-0.5,0.3-0.7,0.7-0.7H255.5z"/>
			<path class="st1" d="M261.7,95.9c0-0.5,0.3-0.7,0.7-0.7h4.6c0.5,0,0.7,0.3,0.7,0.7V111c0,4.2,2.3,7.2,6.7,7.2
				c4.2,0,6.7-2.9,6.7-7.2V95.9c0-0.5,0.3-0.7,0.7-0.7h4.6c0.5,0,0.7,0.3,0.7,0.7v15.2c0,7.4-4.9,12.9-12.8,12.9
				c-7.8,0-12.7-5.6-12.7-12.9L261.7,95.9L261.7,95.9z"/>
			<path class="st1" d="M308.3,95.2c6.3,0,11.2,4.5,11.2,10.4c0,3.8-2,7-5,8.7l4.5,8.6c0.2,0.4-0.1,0.7-0.5,0.7h-5.1
				c-0.4,0-0.7-0.2-0.9-0.5L309,116c-0.4,0.1-0.6,0.1-0.8,0.1h-7.3v6.8c0,0.5-0.3,0.7-0.7,0.7h-4.6c-0.5,0-0.7-0.3-0.7-0.7v-27
				c0-0.5,0.3-0.7,0.7-0.7C295.6,95.2,308.3,95.2,308.3,95.2z M308.3,110.3c3.3,0,5.1-2.1,5.1-4.7c0-2.7-1.8-4.6-5.1-4.6h-7.5v9.4
				h7.5V110.3z"/>
			<path class="st1" d="M348.4,95.2c0.5,0,0.7,0.3,0.7,0.7v4.2c0,0.5-0.3,0.7-0.7,0.7h-15.8v5.3h13.9c0.5,0,0.7,0.3,0.7,0.7v4.2
				c0,0.5-0.3,0.7-0.7,0.7h-13.9v6.2h15.8c0.5,0,0.7,0.2,0.7,0.7v4.3c0,0.5-0.2,0.7-0.6,0.7h-21.2c-0.5,0-0.7-0.3-0.7-0.7v-27
				c0-0.4,0.4-0.7,0.7-0.7L348.4,95.2L348.4,95.2z"/>
		</g>
	</g>
</g>
<g>
	<path class="st1" d="M0,54.4c0,26.8,7.4,90.8,44.7,90c32.2-0.7,83.9-42,92.1-73.5C145.2,39,98,19.1,74.4,11.3c-15-5-37.5-12-53-5.9
		C2.6,12.8,0,36.7,0,54.4z"/>
	<g>
		<path class="st2" d="M33.9,46.8c0-0.8,0.8-1.6,1.7-1.6h11.2c1,0,1.7,0.7,1.7,1.6v33.3c0,5.8,4.7,10.4,11.2,10.4
			c6.6,0,11.4-4.6,11.4-10.4V46.8c0-0.8,0.7-1.6,1.7-1.6H84c0.9,0,1.7,0.7,1.7,1.6v33.9c0,12.5-11.7,22.8-26.1,22.8
			c-14.3,0-25.9-10.4-25.9-22.8V46.8H33.9z"/>
	</g>
</g>
</svg>
