<?xml version="1.0" encoding="UTF-8"?><!DOCTYPE svg PUBLIC "-//W3C//DTD SVG 1.1//EN" "http://www.w3.org/Graphics/SVG/1.1/DTD/svg11.dtd"><svg xmlns="http://www.w3.org/2000/svg"><defs>
        <style>
            .cls-1{fill:#1eb6d1}.cls-2{fill:#58595b}
        </style>
    </defs><symbol id="icon-arrow-down" viewBox="0 0 240.811 240.811">
    <path d="M220.088 57.667l-99.671 99.695-99.671-99.707a12.147 12.147 0 0 0-17.191 0c-4.74 4.752-4.74 12.451 0 17.203l108.261 108.297c4.74 4.752 12.439 4.752 17.179 0L237.256 74.859c4.74-4.752 4.74-12.463 0-17.215-4.728-4.729-12.428-4.729-17.168.023z"/>
</symbol><symbol id="icon-decor" viewBox="0 0 20 13">
    <path fill-rule="evenodd" d="M19.643 9.673l-6.005-3.757L10.065 13h-.216L6.588 6.349 8.34 5.307l1.64 3.482 1.944-3.945-.002-.002.732-1.535 4.007 2.376L14.864.287 16.937 0 20 9.685l-.357-.012zM10 3.694L.357 9.673 0 9.685 3.063 0l2.074.287-1.798 5.396 6.539-3.878h.244l2.033 1.206-.713 1.542L10 3.694z"/>
</symbol><symbol id="icon-facebook" viewBox="0 0 10 19">
    <title>
        facebook
    </title>
    <path d="M9.766.157v2.946H8.014c-.64 0-1.071.134-1.295.402-.223.268-.335.67-.335 1.205v2.11h3.27l-.435 3.303H6.384v8.471H2.97v-8.47H.123V6.82H2.97V4.387c0-1.384.387-2.457 1.161-3.22C4.904.404 5.934.023 7.222.023c1.093 0 1.941.045 2.544.134z" fill-rule="evenodd"/>
</symbol><symbol id="icon-linkedin" viewBox="0 0 430.117 430.117">
    <path d="M430.117 261.543V420.56h-92.188V272.193c0-37.271-13.334-62.707-46.703-62.707-25.473 0-40.632 17.142-47.301 33.724-2.432 5.928-3.058 14.179-3.058 22.477V420.56h-92.219s1.242-251.285 0-277.32h92.21v39.309c-.187.294-.43.611-.606.896h.606v-.896c12.251-18.869 34.13-45.824 83.102-45.824 60.673-.001 106.157 39.636 106.157 124.818zM52.183 9.558C20.635 9.558 0 30.251 0 57.463c0 26.619 20.038 47.94 50.959 47.94h.616c32.159 0 52.159-21.317 52.159-47.94-.606-27.212-20-47.905-51.551-47.905zM5.477 420.56h92.184V143.24H5.477v277.32z"/>
</symbol><symbol id="icon-logo-small" viewBox="0 0 137.8 141.3">
    <style>
        .st0{fill:#1eb6d1}
    </style>
    <path class="st0" d="M74.4 8.3c-15-5-37.5-12-53-5.9C2.6 9.8 0 33.6 0 51.3c0 26.8 7.4 90.8 44.7 90 32.2-.7 83.9-42 92.1-73.5C145.2 36 98 16 74.4 8.3zM86 77.7c0 12.5-11.7 22.8-26.1 22.8s-26-10.3-26-22.8V43.8c.1-.9.8-1.6 1.7-1.6h11.2c.9 0 1.7.7 1.7 1.6v33.3c0 5.8 4.8 10.3 11.2 10.3s11.4-4.6 11.4-10.3V43.8c0-.9.8-1.6 1.7-1.6H84c.9 0 1.7.7 1.8 1.6v33.9z"/>
</symbol><symbol id="icon-logo" viewBox="0 0 349.11 141.29">
    
    <title>
        UFuture Logo horizontal44
    </title>
    <path class="cls-1" d="M74.42 11.32c-15-5-37.51-12-53-5.91C2.59 12.8 0 36.69 0 54.38c0 26.78 7.42 90.81 44.74 90 32.24-.73 83.92-42 92.13-73.47C145.19 39 98 19.09 74.42 11.32zM86 80.77c0 12.49-11.68 22.84-26.11 22.84S33.93 93.26 33.93 80.77V46.84a1.71 1.71 0 0 1 1.73-1.56h11.23a1.65 1.65 0 0 1 1.73 1.56v33.27c0 5.75 4.75 10.35 11.23 10.35s11.41-4.6 11.41-10.35V46.84A1.65 1.65 0 0 1 73 45.28h11.23A1.71 1.71 0 0 1 86 46.84z" transform="translate(0 -3.06)"/>
    <path class="cls-2" d="M138.62 133.57c.18 0 .25.07.25.23v9.15c0 .16-.08.23-.25.23h-.78c-.18 0-.25-.07-.25-.23v-9.15c0-.16.08-.23.25-.23z" transform="translate(0 -3.06)"/>
    <path class="cls-2" d="M153.44 143.18a.41.41 0 0 1-.35-.16l-3.62-4.11-3.19-3.81h-.14l.1 3.56v4.25c0 .16-.1.23-.27.23h-.76a.22.22 0 0 1-.25-.25v-9.09c0-.16.08-.23.25-.23h.79a.54.54 0 0 1 .43.19l3.88 4.36 2.9 3.49h.14l-.1-3.56v-4.25c0-.16.08-.23.25-.23h.78c.18 0 .25.07.25.23v9.15c0 .16-.08.23-.25.23z" transform="translate(0 -3.06)"/>
    <path class="cls-2" d="M164 143.18a.3.3 0 0 1-.29-.18l-4.49-9.19c-.06-.12 0-.25.14-.25h1a.31.31 0 0 1 .29.16l2.12 4.46 1.82 3.9h.18l1.84-4 2.1-4.39a.31.31 0 0 1 .29-.16h1c.14 0 .2.12.14.25l-4.56 9.22a.3.3 0 0 1-.29.18z" transform="translate(0 -3.06)"/>
    <path class="cls-2" d="M182.63 133.57c.18 0 .25.07.25.23v.6c0 .16-.08.23-.25.23h-6.56v3h6.19c.18 0 .25.07.25.23v.6c0 .16-.08.23-.25.23h-6.19v3.47h6.76c.18 0 .25.07.25.21v.62c0 .16-.08.23-.25.23H175c-.18 0-.25-.07-.25-.23v-9.19c0-.16.08-.23.25-.23z" transform="translate(0 -3.06)"/>
    <path class="cls-2" d="M196.71 134.8a.2.2 0 0 1 0 .32l-.49.51a.29.29 0 0 1-.35 0 5.63 5.63 0 0 0-3.61-1.18c-1.94 0-3 .53-3 1.5s1.16 1.29 3.23 1.52c2.72.33 4.68.9 4.68 2.93s-2.14 2.91-4.74 2.91a7.29 7.29 0 0 1-4.84-1.55c-.1-.09-.1-.19 0-.32l.47-.58a.22.22 0 0 1 .35 0 5.94 5.94 0 0 0 4 1.41c2.25 0 3.45-.74 3.45-1.85s-1.43-1.59-3.59-1.82-4.33-.67-4.33-2.63c0-1.53 1.68-2.54 4.27-2.54a6.86 6.86 0 0 1 4.5 1.37z" transform="translate(0 -3.06)"/>
    <path class="cls-2" d="M210.41 133.57c.18 0 .27.09.27.25v.56c0 .16-.1.25-.27.25h-3.84v8.31c0 .16-.1.25-.27.25h-.74c-.18 0-.27-.09-.27-.25v-8.31h-3.84c-.18 0-.27-.09-.27-.25v-.56c0-.16.1-.25.27-.25z" transform="translate(0 -3.06)"/>
    <path class="cls-2" d="M226.86 133.57c.18 0 .25.07.25.23v9.14a.22.22 0 0 1-.25.25h-.76c-.18 0-.27-.09-.27-.25v-4.57l.08-3.55h-.1l-1.65 3.51-2.39 4.64a.4.4 0 0 1-.33.23h-.55a.4.4 0 0 1-.35-.23l-2.43-4.76-1.63-3.39h-.08l.08 3.35v4.76a.22.22 0 0 1-.25.25h-.78a.22.22 0 0 1-.25-.25v-9.13c0-.16.08-.23.25-.23h1.45a.39.39 0 0 1 .37.25l2.27 4.39 1.61 3.42h.12l1.84-3.9 2-3.92a.39.39 0 0 1 .37-.25z" transform="translate(0 -3.06)"/>
    <path class="cls-2" d="M240.26 133.57c.18 0 .25.07.25.23v.6c0 .16-.08.23-.25.23h-6.56v3h6.19c.18 0 .25.07.25.23v.6c0 .16-.08.23-.25.23h-6.19v3.47h6.76c.18 0 .25.07.25.21v.62c0 .16-.08.23-.25.23h-7.8c-.18 0-.25-.07-.25-.23v-9.19c0-.16.08-.23.25-.23z" transform="translate(0 -3.06)"/>
    <path class="cls-2" d="M254.31 143.18a.41.41 0 0 1-.31-.18l-3.62-4.11-3.19-3.81h-.14l.1 3.56v4.25c0 .16-.1.23-.27.23h-.76a.22.22 0 0 1-.25-.25v-9.07c0-.16.08-.23.25-.23h.86a.54.54 0 0 1 .43.19l3.88 4.36 2.9 3.49h.14l-.1-3.56v-4.25c0-.16.08-.23.25-.23h.78c.18 0 .25.07.25.23v9.15c0 .16-.08.23-.25.23z" transform="translate(0 -3.06)"/>
    <path class="cls-2" d="M269.22 133.57c.18 0 .27.09.27.25v.56c0 .16-.1.25-.27.25h-3.84v8.31c0 .16-.1.25-.27.25h-.74c-.18 0-.27-.09-.27-.25v-8.31h-3.84c-.18 0-.27-.09-.27-.25v-.56c0-.16.1-.25.27-.25z" transform="translate(0 -3.06)"/>
    <path class="cls-2" d="M290.37 138c.18 0 .25.07.25.23v4.73c0 .16-.08.23-.25.23h-.51a.27.27 0 0 1-.29-.23l-.14-.76a4.94 4.94 0 0 1-3.31 1.13c-3.13 0-5.53-2.1-5.53-4.94s2.39-5 5.53-5a5.64 5.64 0 0 1 4.39 1.83.21.21 0 0 1 0 .32l-.55.42a.25.25 0 0 1-.37 0 4.43 4.43 0 0 0-3.43-1.48 3.9 3.9 0 1 0 0 7.78 4.53 4.53 0 0 0 3.21-1.31v-2.73c0-.16.1-.23.27-.23z" transform="translate(0 -3.06)"/>
    <path class="cls-2" d="M300.87 133.57c2.27 0 4 1.46 4 3.37a3.25 3.25 0 0 1-2.27 3.07l1.82 2.93c.08.14 0 .25-.18.25h-.94a.42.42 0 0 1-.35-.21l-1.57-2.68a4.43 4.43 0 0 1-.49 0H297v2.65c0 .16-.08.23-.25.23H296c-.18 0-.25-.07-.25-.23v-9.15c0-.16.08-.23.25-.23zm0 5.68c1.72 0 2.68-1 2.68-2.31s-1-2.31-2.68-2.31H297v4.62z" transform="translate(0 -3.06)"/>
    <path class="cls-2" d="M315.06 133.42c3.13 0 5.53 2.08 5.53 5s-2.39 4.94-5.53 4.94-5.51-2.08-5.51-4.94 2.45-5 5.51-5zm-4.19 5a4.21 4.21 0 1 0 4.19-3.9 3.91 3.91 0 0 0-4.2 3.86z" transform="translate(0 -3.06)"/>
    <path class="cls-2" d="M325.28 133.8c0-.16.08-.23.25-.23h.78c.18 0 .25.07.25.23v5.2a3.42 3.42 0 0 0 6.84 0v-5.2c0-.16.1-.23.27-.23h.76c.18 0 .25.07.25.23v5.2c0 2.47-1.8 4.3-4.72 4.3s-4.7-1.83-4.7-4.3z" transform="translate(0 -3.06)"/>
    <path class="cls-2" d="M345.15 133.57c2.29 0 4 1.46 4 3.37s-1.67 3.37-4 3.37h-3.86v2.65c0 .16-.08.23-.25.23h-.78c-.18 0-.25-.07-.25-.23v-9.16c0-.16.08-.23.25-.23zm0 5.68c1.72 0 2.66-1 2.66-2.31s-.94-2.31-2.66-2.31h-3.86v4.62z" transform="translate(0 -3.06)"/>
    <path class="cls-1" d="M137.58 95.89a.66.66 0 0 1 .73-.73h4.59a.66.66 0 0 1 .73.73V111c0 4.22 2.35 7.25 6.67 7.25s6.7-2.86 6.7-7.25V95.89a.66.66 0 0 1 .73-.73h4.59a.66.66 0 0 1 .73.73v15.17c0 7.35-4.9 12.93-12.77 12.93s-12.72-5.58-12.72-12.93z" transform="translate(0 -3.06)"/>
    <path class="cls-1" d="M192.11 95.16a.66.66 0 0 1 .73.73v4.28a.66.66 0 0 1-.73.73h-15.43v5.42h14a.66.66 0 0 1 .73.73v4.28a.66.66 0 0 1-.73.73h-14v10.79a.66.66 0 0 1-.73.73h-4.59a.66.66 0 0 1-.73-.73v-27a.66.66 0 0 1 .73-.73z" transform="translate(0 -3.06)"/>
    <path class="cls-1" d="M199.62 95.89a.66.66 0 0 1 .73-.73h4.59a.66.66 0 0 1 .73.73V111c0 4.22 2.35 7.25 6.67 7.25s6.73-2.87 6.73-7.25V95.89a.66.66 0 0 1 .73-.73h4.59a.66.66 0 0 1 .73.73v15.17c0 7.35-4.9 12.93-12.77 12.93s-12.72-5.58-12.72-12.93z" transform="translate(0 -3.06)"/>
    <path class="cls-1" d="M255.52 95.16a.66.66 0 0 1 .73.73v4.28a.66.66 0 0 1-.73.73h-9.07v22a.66.66 0 0 1-.73.73h-4.59a.66.66 0 0 1-.73-.73v-22h-9.07a.66.66 0 0 1-.73-.73v-4.28a.66.66 0 0 1 .73-.73z" transform="translate(0 -3.06)"/>
    <path class="cls-1" d="M261.72 95.89a.66.66 0 0 1 .73-.73H267a.66.66 0 0 1 .73.73V111c0 4.22 2.35 7.25 6.67 7.25s6.73-2.87 6.73-7.25V95.89a.66.66 0 0 1 .73-.73h4.59a.66.66 0 0 1 .73.73v15.17c0 7.35-4.9 12.93-12.77 12.93s-12.72-5.58-12.72-12.93z" transform="translate(0 -3.06)"/>
    <path class="cls-1" d="M308.33 95.16c6.31 0 11.16 4.48 11.16 10.38a10 10 0 0 1-5 8.71l4.48 8.6a.48.48 0 0 1-.47.73h-5.11a1 1 0 0 1-.94-.52L309 116a5.41 5.41 0 0 1-.83.05h-7.3v6.83a.66.66 0 0 1-.73.73h-4.59a.66.66 0 0 1-.73-.73v-27a.66.66 0 0 1 .73-.73zm0 15.12c3.29 0 5.11-2.09 5.11-4.74s-1.82-4.64-5.11-4.64h-7.51v9.39z" transform="translate(0 -3.06)"/>
    <path class="cls-1" d="M348.38 95.16a.66.66 0 0 1 .73.73v4.17a.66.66 0 0 1-.73.73h-15.8v5.32h13.87a.66.66 0 0 1 .73.73V111a.66.66 0 0 1-.73.73h-13.87v6.15h15.79c.47 0 .73.21.73.68v4.32c0 .47-.17.68-.64.68h-21.2a.66.66 0 0 1-.73-.73v-27a.75.75 0 0 1 .73-.73z" transform="translate(0 -3.06)"/>
</symbol><symbol id="icon-search" viewBox="0 0 244.487 244.487">
    <path d="M241.877 230.131l-72.929-72.929c13.973-16.67 22.465-38.004 22.465-61.061 0-52.204-43.503-95.707-95.707-95.707S0 43.938 0 96.142s43.503 95.707 95.707 95.707c22.621 0 43.573-8.179 60.104-21.682l72.145 72.145c1.74 1.74 3.48 1.74 6.96 1.74s5.22 0 6.96-1.74c3.482-3.48 3.482-8.7.001-12.181zm-146.17-55.683c-43.503 0-78.305-34.802-78.305-78.305s34.802-78.305 78.305-78.305 78.305 34.802 78.305 78.305-34.802 78.305-78.305 78.305z"/>
</symbol></svg>