<?xml version="1.0" encoding="UTF-8"?><!DOCTYPE svg PUBLIC "-//W3C//DTD SVG 1.1//EN" "http://www.w3.org/Graphics/SVG/1.1/DTD/svg11.dtd"><svg xmlns="http://www.w3.org/2000/svg"><symbol id="icon-arrow-down" viewBox="0 0 240.811 240.811">
    <path d="M220.088 57.667l-99.671 99.695-99.671-99.707a12.147 12.147 0 0 0-17.191 0c-4.74 4.752-4.74 12.451 0 17.203l108.261 108.297c4.74 4.752 12.439 4.752 17.179 0L237.256 74.859c4.74-4.752 4.74-12.463 0-17.215-4.728-4.729-12.428-4.729-17.168.023z"/>
</symbol><symbol id="icon-decor" viewBox="0 0 20 13">
    <path fill-rule="evenodd" d="M19.643 9.673l-6.005-3.757L10.065 13h-.216L6.588 6.349 8.34 5.307l1.64 3.482 1.944-3.945-.002-.002.732-1.535 4.007 2.376L14.864.287 16.937 0 20 9.685l-.357-.012zM10 3.694L.357 9.673 0 9.685 3.063 0l2.074.287-1.798 5.396 6.539-3.878h.244l2.033 1.206-.713 1.542L10 3.694z"/>
</symbol><symbol id="icon-facebook" viewBox="0 0 10 19">
    <title>
        facebook
    </title>
    <path d="M9.766.157v2.946H8.014c-.64 0-1.071.134-1.295.402-.223.268-.335.67-.335 1.205v2.11h3.27l-.435 3.303H6.384v8.471H2.97v-8.47H.123V6.82H2.97V4.387c0-1.384.387-2.457 1.161-3.22C4.904.404 5.934.023 7.222.023c1.093 0 1.941.045 2.544.134z" fill-rule="evenodd"/>
</symbol><symbol id="icon-logo" viewBox="0 0 349.1 144.3">
    <style>
        .st0{fill:#58595b}.st1{fill:#1eb6d1}.st2{fill:#fff}
    </style>
    <path class="st0" d="M153.4 143.2c-.2 0-.3-.1-.4-.2l-3.6-4.1-3.2-3.8h-.1l.1 3.6v4.3c0 .2-.1.2-.3.2h-.8c-.2 0-.3-.1-.3-.2v-9.1c0-.2.1-.2.3-.2h.9c.2 0 .3.1.4.2l3.9 4.4 2.9 3.5h.1l-.1-3.6V134c0-.2.1-.2.3-.2h.8c.2 0 .3.1.3.2v9.2c0 .2-.1.2-.3.2h-.9v-.2z"/>
    <path class="st0" d="M164 143.2c-.1 0-.2-.1-.3-.2l-4.5-9.2c-.1-.1 0-.2.1-.2h1c.1 0 .2.1.3.2l2.1 4.5 1.8 3.9h.2l1.8-4 2.1-4.4c.1-.1.2-.2.3-.2h1c.1 0 .2.1.1.2l-4.5 9.2c-.1.1-.2.2-.3.2H164z"/>
    <path class="st0" d="M182.6 133.6c.2 0 .3.1.3.2v.6c0 .2-.1.2-.3.2H176v3h6.2c.2 0 .3.1.3.2v.6c0 .2-.1.2-.3.2H176v3.5h6.8c.2 0 .3.1.3.2v.6c0 .2-.1.2-.3.2H175c-.2 0-.3-.1-.3-.2v-9.2c0-.2.1-.2.3-.2l7.6.1z"/>
    <path class="st0" d="M196.7 134.8c.1.1.1.2 0 .3l-.5.5c-.1.1-.3.1-.4 0-1-.8-2.2-1.2-3.6-1.2-1.9 0-3 .5-3 1.5s1.2 1.3 3.2 1.5c2.7.3 4.7.9 4.7 2.9 0 1.9-2.1 2.9-4.7 2.9-2 0-3.5-.5-4.8-1.6-.1-.1-.1-.2 0-.3l.5-.6c.1-.1.2-.1.4 0 1.2 1 2.5 1.4 4 1.4 2.3 0 3.4-.7 3.4-1.9 0-1.3-1.4-1.6-3.6-1.8-2.2-.2-4.3-.7-4.3-2.6 0-1.5 1.7-2.5 4.3-2.5 1.6.1 3.2.5 4.4 1.5z"/>
    <path class="st0" d="M210.4 133.6c.2 0 .3.1.3.2v.6c0 .2-.1.2-.3.2h-3.8v8.3c0 .2-.1.2-.3.2h-.7c-.2 0-.3-.1-.3-.2v-8.3h-3.8c-.2 0-.3-.1-.3-.2v-.6c0-.2.1-.2.3-.2h8.9z"/>
    <path class="st0" d="M226.9 133.6c.2 0 .3.1.3.2v9.1c0 .2-.1.2-.3.2h-.8c-.2 0-.3-.1-.3-.2v-4.6l.1-3.5h-.1l-1.6 3.5-2.4 4.6c-.1.1-.2.2-.3.2h-.5c-.2 0-.3-.1-.4-.2l-2.4-4.8-1.6-3.4h-.1l.1 3.4v4.8c0 .2-.1.2-.3.2h-.8c-.2 0-.3-.1-.3-.2v-9.1c0-.2.1-.2.3-.2h1.4c.2 0 .3.1.4.2l2.3 4.4 1.6 3.4h.1l1.8-3.9 2-3.9c.1-.2.2-.2.4-.2h1.4z"/>
    <path class="st0" d="M240.3 133.6c.2 0 .3.1.3.2v.6c0 .2-.1.2-.3.2h-6.6v3h6.2c.2 0 .3.1.3.2v.6c0 .2-.1.2-.3.2h-6.2v3.5h6.8c.2 0 .3.1.3.2v.6c0 .2-.1.2-.3.2h-7.8c-.2 0-.3-.1-.3-.2v-9.2c0-.2.1-.2.3-.2l7.6.1z"/>
    <path class="st0" d="M254.3 143.2c-.2 0-.3-.1-.4-.2l-3.6-4.1-3.2-3.8h-.1l.1 3.6v4.3c0 .2-.1.2-.3.2h-.8c-.2 0-.3-.1-.3-.2v-9.1c0-.2.1-.2.3-.2h.9c.2 0 .3.1.4.2l3.9 4.4 2.9 3.5h.1l-.1-3.6V134c0-.2.1-.2.3-.2h.8c.2 0 .3.1.3.2v9.2c0 .2-.1.2-.3.2h-.9v-.2z"/>
    <path class="st0" d="M269.2 133.6c.2 0 .3.1.3.2v.6c0 .2-.1.2-.3.2h-3.8v8.3c0 .2-.1.2-.3.2h-.7c-.2 0-.3-.1-.3-.2v-8.3h-3.8c-.2 0-.3-.1-.3-.2v-.6c0-.2.1-.2.3-.2h8.9z"/>
    <path class="st0" d="M290.4 138c.2 0 .3.1.3.2v4.7c0 .2-.1.2-.3.2h-.5c-.1 0-.3-.1-.3-.2l-.1-.8c-.9.8-2.1 1.1-3.3 1.1-3.1 0-5.5-2.1-5.5-4.9 0-2.9 2.4-5 5.5-5 1.8 0 3.3.6 4.4 1.8.1.1.1.2 0 .3l-.5.4c-.1.1-.3.1-.4 0-.8-.9-2-1.5-3.4-1.5-2.4 0-4.2 1.7-4.2 3.9s1.8 3.9 4.2 3.9c1.3 0 2.4-.5 3.2-1.3v-2.7c0-.2.1-.2.3-.2h.6v.1z"/>
    <path class="st0" d="M300.9 133.6c2.3 0 4 1.5 4 3.4 0 1.4-.9 2.6-2.3 3.1l1.8 2.9c.1.1 0 .2-.2.2h-.9c-.1 0-.3-.1-.4-.2l-1.6-2.7H297v2.6c0 .2-.1.2-.3.2h-.7c-.2 0-.3-.1-.3-.2v-9.2c0-.2.1-.2.3-.2l4.9.1zm0 5.6c1.7 0 2.7-1 2.7-2.3s-1-2.3-2.7-2.3H297v4.6h3.9z"/>
    <path class="st0" d="M315.1 133.4c3.1 0 5.5 2.1 5.5 5s-2.4 4.9-5.5 4.9-5.5-2.1-5.5-4.9c0-2.9 2.4-5 5.5-5zm-4.2 5c0 2.2 1.7 3.9 4.2 3.9s4.2-1.7 4.2-3.9-1.7-3.9-4.2-3.9-4.2 1.7-4.2 3.9z"/>
    <path class="st0" d="M325.3 133.8c0-.2.1-.2.3-.2h.8c.2 0 .3.1.3.2v5.2c0 1.9 1.3 3.3 3.4 3.3 2.2 0 3.4-1.4 3.4-3.3v-5.2c0-.2.1-.2.3-.2h.8c.2 0 .3.1.3.2v5.2c0 2.5-1.8 4.3-4.7 4.3-2.9 0-4.7-1.8-4.7-4.3v-5.2h-.2z"/>
    <path class="st0" d="M345.1 133.6c2.3 0 4 1.5 4 3.4s-1.7 3.4-4 3.4h-3.9v2.6c0 .2-.1.2-.3.2h-.8c-.2 0-.3-.1-.3-.2v-9.2c0-.2.1-.2.3-.2h5zm0 5.6c1.7 0 2.7-1 2.7-2.3s-.9-2.3-2.7-2.3h-3.9v4.6h3.9z"/>
    <path class="st1" d="M137.6 95.9c0-.5.3-.7.7-.7h4.6c.5 0 .7.3.7.7V111c0 4.2 2.3 7.2 6.7 7.2 4.2 0 6.7-2.9 6.7-7.2V95.9c0-.5.3-.7.7-.7h4.6c.5 0 .7.3.7.7v15.2c0 7.4-4.9 12.9-12.8 12.9-7.8 0-12.7-5.6-12.7-12.9V95.9h.1z"/>
    <path class="st1" d="M192.1 95.2c.5 0 .7.3.7.7v4.3c0 .5-.3.7-.7.7h-15.4v5.4h14c.5 0 .7.3.7.7v4.3c0 .5-.3.7-.7.7h-14v10.8c0 .5-.3.7-.7.7h-4.6c-.5 0-.7-.3-.7-.7v-27c0-.5.3-.7.7-.7l20.7.1z"/>
    <path class="st1" d="M199.6 95.9c0-.5.3-.7.7-.7h4.6c.5 0 .7.3.7.7V111c0 4.2 2.3 7.2 6.7 7.2 4.2 0 6.7-2.9 6.7-7.2V95.9c0-.5.3-.7.7-.7h4.6c.5 0 .7.3.7.7v15.2c0 7.4-4.9 12.9-12.8 12.9-7.8 0-12.7-5.6-12.7-12.9V95.9h.1z"/>
    <path class="st1" d="M255.5 95.2c.5 0 .7.3.7.7v4.3c0 .5-.3.7-.7.7h-9.1v22c0 .5-.3.7-.7.7h-4.6c-.5 0-.7-.3-.7-.7v-22h-9.1c-.5 0-.7-.3-.7-.7v-4.3c0-.5.3-.7.7-.7h24.2z"/>
    <path class="st1" d="M261.7 95.9c0-.5.3-.7.7-.7h4.6c.5 0 .7.3.7.7V111c0 4.2 2.3 7.2 6.7 7.2 4.2 0 6.7-2.9 6.7-7.2V95.9c0-.5.3-.7.7-.7h4.6c.5 0 .7.3.7.7v15.2c0 7.4-4.9 12.9-12.8 12.9-7.8 0-12.7-5.6-12.7-12.9l.1-15.2z"/>
    <path class="st1" d="M308.3 95.2c6.3 0 11.2 4.5 11.2 10.4 0 3.8-2 7-5 8.7l4.5 8.6c.2.4-.1.7-.5.7h-5.1c-.4 0-.7-.2-.9-.5L309 116c-.4.1-.6.1-.8.1h-7.3v6.8c0 .5-.3.7-.7.7h-4.6c-.5 0-.7-.3-.7-.7v-27c0-.5.3-.7.7-.7h12.7zm0 15.1c3.3 0 5.1-2.1 5.1-4.7 0-2.7-1.8-4.6-5.1-4.6h-7.5v9.4h7.5v-.1z"/>
    <path class="st1" d="M348.4 95.2c.5 0 .7.3.7.7v4.2c0 .5-.3.7-.7.7h-15.8v5.3h13.9c.5 0 .7.3.7.7v4.2c0 .5-.3.7-.7.7h-13.9v6.2h15.8c.5 0 .7.2.7.7v4.3c0 .5-.2.7-.6.7h-21.2c-.5 0-.7-.3-.7-.7v-27c0-.4.4-.7.7-.7h21.1z"/>
    <g>
        <path class="st1" d="M0 54.4c0 26.8 7.4 90.8 44.7 90 32.2-.7 83.9-42 92.1-73.5C145.2 39 98 19.1 74.4 11.3c-15-5-37.5-12-53-5.9C2.6 12.8 0 36.7 0 54.4z"/>
        <path class="st2" d="M33.9 46.8c0-.8.8-1.6 1.7-1.6h11.2c1 0 1.7.7 1.7 1.6v33.3c0 5.8 4.7 10.4 11.2 10.4 6.6 0 11.4-4.6 11.4-10.4V46.8c0-.8.7-1.6 1.7-1.6H84c.9 0 1.7.7 1.7 1.6v33.9c0 12.5-11.7 22.8-26.1 22.8-14.3 0-25.9-10.4-25.9-22.8V46.8h.2z"/>
    </g>
</symbol><symbol id="icon-search" viewBox="0 0 244.487 244.487">
    <path d="M241.877 230.131l-72.929-72.929c13.973-16.67 22.465-38.004 22.465-61.061 0-52.204-43.503-95.707-95.707-95.707S0 43.938 0 96.142s43.503 95.707 95.707 95.707c22.621 0 43.573-8.179 60.104-21.682l72.145 72.145c1.74 1.74 3.48 1.74 6.96 1.74s5.22 0 6.96-1.74c3.482-3.48 3.482-8.7.001-12.181zm-146.17-55.683c-43.503 0-78.305-34.802-78.305-78.305s34.802-78.305 78.305-78.305 78.305 34.802 78.305 78.305-34.802 78.305-78.305 78.305z"/>
</symbol></svg>