<?xml version="1.0" encoding="utf-8"?>
<!-- Generator: Adobe Illustrator 21.0.0, SVG Export Plug-In . SVG Version: 6.00 Build 0)  -->
<svg version="1.1" id="Layer_1" xmlns="http://www.w3.org/2000/svg" xmlns:xlink="http://www.w3.org/1999/xlink" x="0px" y="0px"
	 viewBox="0 0 322 322" style="enable-background:new 0 0 322 322;" xml:space="preserve">
<style type="text/css">
	.st0{fill:#FFFFFF;}
</style>
<path class="st0" d="M161.2-0.1C72.3-0.1,0.1,72.1,0.1,161c0,89,72.1,161.1,161.1,161.1c89,0,161.1-72.1,161.1-161.1
	C322.3,72.1,250.2-0.1,161.2-0.1z M161.2,304.3C82.1,304.3,18,240.1,18,161C18,81.9,82.1,17.8,161.2,17.8
	c79.1,0,143.2,64.1,143.2,143.2C304.5,240.1,240.3,304.3,161.2,304.3z"/>
<path class="st0" d="M114.9,81.5l128.8,74.4c4,2.3,4,8,0,10.3l-128.8,74.4c-4,2.3-8.9-0.6-8.9-5.2V86.7
	C106,82.1,111,79.2,114.9,81.5z"/>
</svg>
